<svg xmlns="http://www.w3.org/2000/svg" xmlns:xlink="http://www.w3.org/1999/xlink" fill="none" version="1.1" width="30" height="28" viewBox="0 0 30 28"><g style="mix-blend-mode:passthrough"><path d="M8.51821,0.00640645C7.52058,-0.0336939,6.55394,0.122967,5.63773,0.468956C4.70752,0.820231,3.82929,1.36666,3.02339,2.10048C2.89917,2.21358,2.77667,2.33114,2.65596,2.45313C0.71043,4.41925,-0.221084,7.00989,0.0444204,9.72729C0.306924,12.4128,1.6802,15.0633,3.99248,17.4005C5.70201,19.135,7.41128,20.8699,9.1203,22.605L9.97156,23.4699L14.0007,27.5763C14.2672,27.8478,14.6259,28,14.9997,28C15.3733,28,15.732,27.8478,15.9987,27.5763L16.4622,27.1042L17.6292,25.9174C18.8292,24.6948,20.0202,23.4839,21.1393,22.3452C23.6278,19.8145,25.3618,18.053,26.0068,17.4005C28.3191,15.0633,29.6931,12.412,29.9556,9.72729C30.2211,7.00989,29.2889,4.41925,27.3441,2.45313C26.8904,1.9947,26.4115,1.5987,25.9112,1.26667C24.3007,0.197922,22.4688,-0.207999,20.5474,0.100368L20.5468,0.100477L20.5475,0.100477L20.5468,0.100585C19.0286,0.343948,17.493,1.02711,16.0144,2.10048C15.6731,2.34831,15.3347,2.61694,15.0003,2.90577C14.6662,2.61691,14.3281,2.34828,13.9869,2.10048C12.5083,1.02656,10.9719,0.343767,9.4533,0.100477C9.13902,0.0501068,8.82713,0.0188236,8.51821,0.00640645ZM7.15201,2.10048L9.28354,2.10048Q11.4757,2.50224,13.6923,4.4187L14.9997,5.5491L16.3077,4.41932Q18.6019,2.43767,20.8638,2.07529L20.9034,2.06896Q23.7204,1.63455,25.9224,3.85989Q28.2859,6.24921,27.9651,9.53281Q27.6347,12.9114,24.585,15.9938L19.714,20.9422L16.2026,24.5156L15.0361,25.7019L14.9998,25.7389L11.3992,22.0692L10.5457,21.202L9.7106,20.3543L5.41712,15.9968Q2.36526,12.9121,2.03493,9.53272Q1.71404,6.24845,4.0776,3.85988Q5.48814,2.43445,7.15201,2.10048Z" fill-rule="evenodd" fill="#000000" fill-opacity="1"/></g></svg>