<svg xmlns="http://www.w3.org/2000/svg" xmlns:xlink="http://www.w3.org/1999/xlink" fill="none" version="1.1" width="31" height="30" viewBox="0 0 31 30"><defs><clipPath id="master_svg0_307_2700/305_2606"><rect x="0" y="0" width="31" height="30" rx="0"/></clipPath></defs><g clip-path="url(#master_svg0_307_2700/305_2606)"><g><path d="M15.0640875,2.71871521875L7.7015675,7.96871921875L4.1171875,7.96871921875C3.0515625,7.96871921875,2.1796875,8.81246921875,2.1796875,9.84371921875L2.1796875,20.15624921875C2.1796875,21.18744921875,3.0515625,22.03124921875,4.1171875,22.03124921875L7.7015675,22.03124921875L15.0640875,27.28124921875C16.3234875,28.17184921875,18.1640875,27.32804921875,18.1640875,25.78124921875L18.1640875,4.2187192187499996C18.1640875,2.67184021875,16.3718875,1.7812152187499999,15.0640875,2.71871521875ZM16.2265875,23.90624921875C16.2265875,24.70304921875,15.2577875,25.12494921875,14.5796875,24.70304921875L7.9921875,20.15624921875L4.6499975,20.15624921875C4.3109375,20.15624921875,4.1171875,19.96874921875,4.1171875,19.68744921875L4.1171875,10.31246921875C4.1171875,10.03121921875,4.3593775,9.84371921875,4.6499975,9.84371921875L8.0406275,9.84371921875L14.5796875,5.3437192187499996C15.2577875,4.8749692187499996,16.2265875,5.3437192187499996,16.2265875,6.14058921875L16.2265875,23.90624921875ZM22.0390875,8.24996921875C21.8452875,8.06246921875,21.6030875,7.96871921875,21.3609875,7.96871921875C20.8280875,7.96871921875,20.3921875,8.39058921875,20.3921875,8.90621921875C20.3921875,9.18746921875,20.4890875,9.42183921875,20.6827875,9.56246921875C22.1359875,10.92183921875,23.0562875,12.84374921875,23.0562875,14.95304921875C23.0562875,17.06244921875,22.1359875,18.98434921875,20.6827875,20.34374921875C20.4890875,20.53124921875,20.3921875,20.76554921875,20.3921875,20.99994921875C20.3921875,21.51554921875,20.8280875,21.93744921875,21.3609875,21.93744921875C21.6515875,21.93744921875,21.8937875,21.84374921875,22.0390875,21.65624921875C23.8312875,19.96874921875,24.9452875,17.57804921875,24.9452875,14.95304921875C24.9937875,12.32808921875,23.8796875,9.98433921875,22.0390875,8.24996921875Z" fill="#000000" fill-opacity="1"/></g><g><path d="M24.99374279296875,5.4375C24.79999279296875,5.25,24.55780279296875,5.15625,24.31561279296875,5.15625C23.78280079296875,5.15625,23.34686279296875,5.578125,23.34686279296875,6.09375C23.34686279296875,6.375,23.44373779296875,6.60937,23.63748779296875,6.75C25.91405279296875,8.8125,27.367172792968752,11.71875,27.367172792968752,15C27.367172792968752,18.23435,25.91405279296875,21.18745,23.63748779296875,23.25005C23.49217579296875,23.43745,23.39530029296875,23.62505,23.39530029296875,23.90625C23.39530029296875,24.42185,23.83123779296875,24.84375,24.36405279296875,24.84375C24.60624279296875,24.84375,24.84842279296875,24.75005,25.04217279296875,24.60935C27.657802792968752,22.21875,29.304672792968752,18.84375,29.304672792968752,15.04687C29.304672792968752,11.20313,27.657802792968752,7.82813,24.99374279296875,5.4375Z" fill="#000000" fill-opacity="1"/></g></g></svg>