<svg xmlns="http://www.w3.org/2000/svg" xmlns:xlink="http://www.w3.org/1999/xlink" fill="none" version="1.1" width="30" height="25" viewBox="0 0 30 25"><defs><clipPath id="master_svg0_307_2704/307_2611"><rect x="30" y="25" width="30" height="25" rx="0"/></clipPath></defs><g transform="matrix(-1,0,0,-1,60,50)" clip-path="url(#master_svg0_307_2704/307_2611)"><g><path d="M39.906511406250004,44.1838283203125C35.91614140625,44.1797283203125,32.68240140625,41.008628320312496,32.67827140625,37.095528320312496C32.68240140625,33.182498320312504,35.91614140625,30.0113883203125,39.906511406250004,30.0073383203125C39.98239140625,30.0075683203125,40.05829140625,30.0011583203125,40.13299140625,29.988218320312498L40.13299140625,31.9029283203125C40.13299140625,32.3058683203125,40.60229140625,32.5396883203125,40.93379140625,32.2999883203125L45.37269140625,29.0941083203125C45.660091406250004,28.883578320312502,45.660091406250004,28.5105083203125,45.37269140625,28.2999883203125L40.93379140625,25.0985157203125C40.78519140625,24.9909274203125,40.57349140625,24.9734545203125,40.40869140625,25.0551778203125C40.23749140625,25.1400643203125,40.132691406250004,25.3074473203125,40.13299140625,25.4955743203125L40.13299140625,27.4029283203125C40.05829140625,27.3899883203125,39.98239140625,27.383578320312502,39.906511406250004,27.3838083203125C38.57333140625,27.3838083203125,37.27765140625,27.6426283203125,36.05545140625,28.1514583203125C34.88111140625,28.6403683203125,33.81087140625,29.3487083203125,32.90921140625,30.233808320312498C29.98860000625,33.0878183203125,29.17721340625,37.1464283203125,30.78273440625,40.8705283203125C31.28511140625,42.026428320312505,31.99744140625,43.0647283203125,32.90921140625,43.9573283203125C34.74520140625,45.7656283203125,37.30437140625,46.8090283203125,39.906511406250004,46.8103283203125C40.646591406249996,46.8110283203125,41.246991406250004,46.2228283203125,41.246991406250004,45.497028320312495C41.246991406250004,44.7713283203125,40.646591406249996,44.1831283203125,39.906511406250004,44.1838283203125ZM59.21279140625,33.3205783203125C58.71239140625,32.1656983203125,57.99209140625,31.1201183203125,57.08629140625,30.233808320312498C55.25069140625,28.4258983203125,52.692191406250004,27.3825083203125,50.090491406249996,27.3808683203125C49.350791406249996,27.3806183203125,48.75089140625,27.9686583203125,48.75089140625,28.694108320312502C48.75089140625,29.4195483203125,49.350791406249996,30.0075883203125,50.090491406249996,30.0073383203125C54.080891406250004,30.0113883203125,57.31459140625,33.182498320312504,57.31879140625,37.095528320312496C57.31459140625,41.008628320312496,54.080891406250004,44.1797283203125,50.090491406249996,44.1838283203125C49.956491406249995,44.1830283203125,49.82239140625,44.202928320312495,49.69459140625,44.242628320312505L49.69459140625,42.247028320312495C49.694491406249995,42.0594283203125,49.589891406250004,41.8926283203125,49.41929140625,41.8079283203125C49.25499140625,41.7262283203125,49.04389140625,41.7432283203125,48.895291406249996,41.850028320312504L44.45639140625,45.054428320312496C44.16899140625,45.2649283203125,44.16899140625,45.6380283203125,44.45639140625,45.8485283203125L48.89079140625,49.0485283203125C49.039391406250004,49.156128320312504,49.25109140625,49.1735283203125,49.41589140625,49.0918283203125C49.587091406249996,49.0069283203125,49.69189140625,48.8396283203125,49.69159140625,48.651428320312505L49.69159140625,46.7514283203125C49.816091406249996,46.7897283203125,49.94959140625,46.8103283203125,50.08599140625,46.8103283203125C51.41919140625,46.8103283203125,52.714891406250004,46.5500283203125,53.937091406250005,46.041128320312495C55.11159140625,45.551828320312495,56.18179140625,44.842928320312495,57.08329140625,43.9573283203125C60.00499140625,41.1040283203125,60.81749140625,37.0453283203125,59.21279140625,33.3205783203125Z" fill="#000000" fill-opacity="1"/></g></g></svg>