<svg xmlns="http://www.w3.org/2000/svg" xmlns:xlink="http://www.w3.org/1999/xlink" fill="none" version="1.1" width="46" height="46" viewBox="0 0 46 46"><g style="mix-blend-mode:passthrough"><g style="mix-blend-mode:passthrough"><g style="mix-blend-mode:passthrough" transform="matrix(0,1,-1,0,44.74626922607422,-24.74626922607422)"><path d="M56.954169226074214,26.9254C57.68586922607422,28.1791,56.77126922607422,29.7463,55.30786922607422,29.7463L36.65005922607422,29.7463C35.18670522607422,29.7463,34.27210622607422,28.1791,35.00378522607422,26.9254L44.33268922607422,10.940299C45.06436922607422,9.686567,46.89356922607422,9.686567,47.62526922607422,10.940299L56.954169226074214,26.9254Z" fill="#00FFF2" fill-opacity="1"/></g><g style="mix-blend-mode:passthrough" transform="matrix(0,1,-1,0,48.53460931777954,-23.46539068222046)"><path d="M58.207899999999995,29.46000931777954C58.9396,30.71370931777954,58.025,32.280909317779546,56.5616,32.280909317779546L37.90379,32.280909317779546C36.440436,32.280909317779546,35.525837,30.71370931777954,36.257516,29.46000931777954L45.586420000000004,13.47490831777954C46.3181,12.221176317779541,48.1473,12.221176317779541,48.879,13.47490831777954L58.207899999999995,29.46000931777954Z" fill="#FF008C" fill-opacity="1"/></g><g style="mix-blend-mode:passthrough" transform="matrix(0,1,-1,0,47.12690615653992,-24.246232271194458)"><path d="M57.89446921386718,28.36573694267273C58.626169213867186,29.619436942672728,57.711569213867186,31.18663694267273,56.248169213867186,31.18663694267273L37.59035921386719,31.18663694267273C36.127005213867186,31.18663694267273,35.21240621386719,29.619436942672728,35.94408521386719,28.36573694267273L45.27298921386719,12.380635942672729C46.00466921386719,11.12690394267273,47.83386921386719,11.12690394267273,48.565569213867185,12.380635942672729L57.89446921386718,28.36573694267273Z" fill="#000000" fill-opacity="1"/></g></g><g style="mix-blend-mode:passthrough"><ellipse cx="23" cy="23" rx="22.5" ry="22.5" fill-opacity="0" stroke-opacity="1" stroke="#000000" fill="none" stroke-width="1"/></g></g></svg>